<?xml version="1.0" encoding="utf-8"?>
<!-- Generator: Adobe Illustrator 24.0.1, SVG Export Plug-In . SVG Version: 6.00 Build 0)  -->
<svg xmlns="http://www.w3.org/2000/svg" x="0px" y="0px" viewBox="0 0 578.15 466.78" style="enable-background:new 0 0 578.15 466.78;">
	<style type="text/css">
		.path-normal {fill:#2E4974;stroke:#2E4974;stroke-width:5;stroke-miterlimit:10;}
		.path-zero   {fill:none;stroke:#2E4974;stroke-width:20;stroke-miterlimit:10;}
	</style>
	<path class="path-normal" d="M288.37,84.49H179.01l-4.75-4.75V64.72l4.75-4.75h109.36v-13.8H179.01l-4.75-4.75V21.64h-13.8v19.77 l-4.75,4.75H46.34v13.8H155.7l4.75,4.75v15.02l-4.75,4.75H46.34v13.8h242.03V84.49z M288.37,122.81H46.34v59.67h242.03V122.81z M120.47,163.93l-4.75,4.75H60.14V136.6h55.58l4.75,4.75V163.93z M200.44,163.93l-4.75,4.75h-56.66l-4.75-4.75v-22.57l4.75-4.75 h56.66l4.75,4.75V163.93z M274.57,168.69h-55.58l-4.75-4.75v-22.57l4.75-4.75h55.58V168.69z M288.37,208.71H3.9v134.44h284.47 V208.71z M274.57,329.35H17.7v-18.84l4.75-4.75h247.37l4.75,4.75V329.35z M274.57,287.21l-4.75,4.75H22.45l-4.75-4.75v-22.57 l4.75-4.75h247.37l4.75,4.75V287.21z M274.57,241.34l-4.75,4.75H22.45l-4.75-4.75V222.5h256.87V241.34z M128.09,411.38 c-5.15,10.87-14.53,17.76-27.87,20.46c-8.97,1.82-16.95,1.12-19.31,0.84v-8.5h-2.55v19.99l-0.42,2.67 c0.04,0.01,0.19,0.03,0.42,0.06v3.33h2.55v-3.05c1.69,0.15,4.02,0.29,6.8,0.29c4.17,0,9.34-0.32,14.88-1.4 c18.04-3.53,31.37-13.39,38.54-28.53L166.49,364h-15.97L128.09,411.38z M261.74,459.71h-2.84v2.55h26.05v-2.55h-8.78v-42.18 c0-16.75-7.82-31.37-22.62-42.28c-10.75-7.93-21.5-11.11-21.95-11.24v15.35c3.44,1.43,8.62,3.94,13.72,7.75 c10.9,8.16,16.43,18.39,16.43,30.42v42.18H261.74z"/>
	<path class="path-normal" d="M347.33,30.4h2.4l34.59,71.78h20.99L439.9,30.4h2.4v61.18h15.03V15.37h-27.7l-34.59,71.78h-0.45L360,15.37 h-27.7v76.21h15.03V30.4z"/>
	<path class="path-normal" d="M421.95,134.8h-87.01v13.8h87.01V134.8z M574.32,172.78H332.3v106.59h242.02V172.78z M560.53,265.57H346.09 V237.2l4.75-4.75h204.92l4.75,4.75v28.37H560.53z M560.53,213.9l-4.75,4.75H350.85l-4.75-4.75v-27.32h214.43V213.9z M571.92,433.33 v5.07H419.81c-13.62,0-23.61-4.51-29.71-13.42c-4.29-6.26-5.27-12.76-5.42-13.93v-40.82l4.75-4.75h184.89v-13.8H389.43l-4.75-4.75 v-16.94l4.75-4.75h184.89v-13.8H332.3v13.8h33.85l4.73,4.73v16.98l-4.73,4.73H332.3v13.8h33.85l4.73,4.73v41.2l0.02,0.55 c0.03,0.4,3.74,40.24,48.9,40.24h152.12v11.18h2.44v-30.05L571.92,433.33L571.92,433.33z"/>
	<path class="path-normal" d="M501.31,12.89v7.44h-5.89l-2.6,2.6v7.02h-7.44v-7.03l-2.6-2.6h-5.89v-7.44h5.89l2.6-2.6V3.27h7.44v7.02l2.6,2.6 C495.42,12.89,501.31,12.89,501.31,12.89z"/>
	<path class="path-zero" d="M559.53,112.38c0,15.57-10.84,28.23-24.16,28.23c-13.32,0-24.16-12.66-24.16-28.23V65.75 c0-15.57,10.84-28.23,24.16-28.23s24.16,12.66,24.16,28.23V112.38z"/>
</svg>
